<svg width="17" height="16" viewBox="0 0 17 16" fill="none" xmlns="http://www.w3.org/2000/svg">
<g clip-path="url(#clip0_5_52)">
<path d="M9.83716 9.80312C9.43909 10.0685 8.97672 10.2088 8.5 10.2088C8.02331 10.2088 7.56094 10.0685 7.16288 9.80312L0.606531 5.43209C0.570156 5.40784 0.534719 5.38256 0.5 5.35656V12.519C0.5 13.3402 1.16641 13.9919 1.97291 13.9919H15.0271C15.8482 13.9919 16.5 13.3255 16.5 12.519V5.35653C16.4652 5.38259 16.4297 5.40793 16.3932 5.43221L9.83716 9.80312Z" fill="#006D77"/>
<path d="M1.12656 4.65205L7.68291 9.02311C7.93109 9.18858 8.21553 9.2713 8.49997 9.2713C8.78444 9.2713 9.06891 9.18855 9.31709 9.02311L15.8734 4.65205C16.2658 4.39064 16.5 3.95314 16.5 3.48095C16.5 2.66905 15.8395 2.00854 15.0276 2.00854H1.97241C1.16053 2.00858 0.5 2.66908 0.5 3.48173C0.5 3.95314 0.73425 4.39064 1.12656 4.65205Z" fill="#006D77"/>
</g>
<defs>
<clipPath id="clip0_5_52">
<rect width="16" height="16" fill="white" transform="translate(0.5)"/>
</clipPath>
</defs>
</svg>
