<svg width="16" height="16" viewBox="0 0 16 16" fill="none" xmlns="http://www.w3.org/2000/svg">
<path fill-rule="evenodd" clip-rule="evenodd" d="M16 8C16 12.4183 12.4183 16 8 16C3.58172 16 0 12.4183 0 8C0 3.58172 3.58172 0 8 0C12.4183 0 16 3.58172 16 8ZM5.56112 8.22528H6.63496V11.7722C6.63496 11.9349 6.70004 12 6.86275 12H8.21861C8.41385 12 8.46809 11.9349 8.46809 11.7505V8.21443H9.72633C9.91072 8.21443 9.96496 8.1602 9.96496 7.98665V6.67418C9.96496 6.50063 9.89987 6.43554 9.72633 6.43554H8.46809C8.46809 6.32223 8.46685 6.21138 8.46563 6.10174C8.46324 5.88605 8.46089 5.67507 8.46809 5.45932C8.46809 5.15561 8.61994 5.0146 8.91281 5.0146C9.20567 5.00376 9.49854 5.00375 9.79141 5.00375C9.94326 5.00375 10.0083 4.93867 10.0083 4.78682V3.55027C10.0083 3.39841 9.94326 3.33333 9.79141 3.33333H8.72841C8.43554 3.33333 8.16437 3.37672 7.8932 3.47434C7.48102 3.6262 7.15561 3.88652 6.92783 4.27701C6.71089 4.65665 6.63496 5.06884 6.63496 5.50271V6.45724H5.56112C5.39842 6.45724 5.33333 6.51147 5.33333 6.68502V7.9975C5.33333 8.1602 5.38757 8.22528 5.56112 8.22528Z" fill="#006D77"/>
</svg>
