<svg width="24" height="25" viewBox="0 0 24 25" fill="none" xmlns="http://www.w3.org/2000/svg">
<path fill-rule="evenodd" clip-rule="evenodd" d="M3.60156 18.4998C3.60156 17.837 4.13881 17.2998 4.80156 17.2998H19.2016C19.8643 17.2998 20.4016 17.837 20.4016 18.4998C20.4016 19.1626 19.8643 19.6998 19.2016 19.6998H4.80156C4.13881 19.6998 3.60156 19.1626 3.60156 18.4998ZM3.60156 6.4998C3.60156 5.83706 4.13881 5.2998 4.80156 5.2998H19.2016C19.8643 5.2998 20.4016 5.83706 20.4016 6.4998C20.4016 7.16254 19.8643 7.6998 19.2016 7.6998H4.80156C4.13881 7.6998 3.60156 7.16254 3.60156 6.4998ZM3.60156 12.4998C3.60156 11.8371 4.13881 11.2998 4.80156 11.2998H12.0016C12.6643 11.2998 13.2016 11.8371 13.2016 12.4998C13.2016 13.1626 12.6643 13.6998 12.0016 13.6998H4.80156C4.13881 13.6998 3.60156 13.1626 3.60156 12.4998Z" fill="#006D77"/>
</svg>
