<svg width="17" height="16" viewBox="0 0 17 16" fill="none" xmlns="http://www.w3.org/2000/svg">
<path d="M16.0477 11.7424L13.8149 9.50954C13.0174 8.71209 11.6618 9.0311 11.3428 10.0678C11.1036 10.7855 10.3061 11.1842 9.58841 11.0247C7.99352 10.626 5.84042 8.5526 5.4417 6.87797C5.20246 6.16024 5.68093 5.36279 6.39863 5.12359C7.43531 4.80461 7.75429 3.44895 6.95684 2.65151L4.724 0.418659C4.08604 -0.139553 3.1291 -0.139553 2.57089 0.418659L1.05575 1.93381C-0.459401 3.5287 1.21523 7.75516 4.96323 11.5032C8.71122 15.2511 12.9377 17.0056 14.5326 15.4106L16.0477 13.8955C16.606 13.2575 16.606 12.3006 16.0477 11.7424Z" fill="#006D77"/>
</svg>
