<svg width="13" height="12" viewBox="0 0 13 12" fill="none" xmlns="http://www.w3.org/2000/svg">
<path d="M11.4545 0.666748C12.0248 0.666748 12.4895 1.13063 12.4896 1.70093V8.64331C12.4896 9.21375 12.0249 9.67847 11.4545 9.67847H1.7533C1.183 9.6783 0.719116 9.21365 0.719116 8.64331V1.70093C0.719281 1.13073 1.1831 0.666912 1.7533 0.666748H11.4545ZM5.58533 3.02319C5.3462 2.87002 5.03562 3.04114 5.03552 3.323V7.02222C5.03577 7.30391 5.34627 7.47505 5.58533 7.32202L8.49158 5.47241C8.71293 5.33317 8.71293 5.01171 8.49158 4.8689L5.58533 3.02319Z" fill="#F41E92"/>
<rect x="3.02295" y="10.5059" width="7.17241" height="0.735632" rx="0.367816" fill="#F41E92"/>
</svg>
