<svg width="24" height="25" viewBox="0 0 24 25" fill="none" xmlns="http://www.w3.org/2000/svg">
<rect y="0.5" width="24" height="24" rx="12" fill="#006D77"/>
<g clip-path="url(#clip0_1_29)">
<path d="M4.25204 14.7095C5.24453 14.7095 6.17076 14.7036 7.09764 14.7114C7.61783 14.716 7.89924 14.9371 7.94712 15.3472C8.00747 15.8663 7.70507 16.2108 7.1429 16.2167C6.08286 16.2285 5.02215 16.2213 3.9621 16.2213C3.65577 16.2213 3.34943 16.2318 3.0444 16.214C2.66394 16.1924 2.292 16.1169 2.10964 15.7239C1.92728 15.3302 2.05389 14.9772 2.30578 14.657C3.31925 13.3683 4.33338 12.0802 5.34751 10.7915C5.40786 10.7148 5.46559 10.6367 5.52463 10.5606C5.46296 10.4484 5.36457 10.4989 5.28782 10.4982C4.5774 10.4936 3.86699 10.4982 3.15657 10.493C2.99389 10.4917 2.82728 10.4785 2.6705 10.4379C2.34055 10.3513 2.14047 10.0875 2.13785 9.77252C2.13523 9.45691 2.32939 9.18985 2.65803 9.09733C2.8135 9.05337 2.98143 9.03828 3.14345 9.03762C4.31305 9.03303 5.48264 9.03303 6.65224 9.03762C6.85887 9.03828 7.06681 9.04353 7.26754 9.11308C7.71097 9.26597 7.90645 9.67541 7.72606 10.1078C7.56928 10.4851 7.3187 10.8053 7.06878 11.1236C6.21143 12.2154 5.35079 13.304 4.49147 14.3945C4.42456 14.4792 4.36028 14.5658 4.25204 14.7088V14.7095Z" fill="white"/>
<path d="M11.8562 11.2553C12.0156 11.0538 12.1744 10.8649 12.4447 10.8097C12.9602 10.7047 13.4489 11.0394 13.4555 11.5637C13.4726 12.8753 13.4667 14.187 13.4588 15.4986C13.4568 15.8569 13.2358 16.1312 12.913 16.2414C12.5745 16.3562 12.2223 16.2729 11.9966 15.9875C11.8858 15.8477 11.8385 15.8241 11.6844 15.9488C11.0868 16.433 10.4131 16.5177 9.68499 16.2814C8.5167 15.9022 8.03588 14.9914 7.90862 13.8766C7.77218 12.6785 8.17101 11.6503 9.24286 11.0197C10.133 10.4961 11.0369 10.5401 11.8556 11.2553H11.8562ZM9.53739 13.6542C9.54395 13.8799 9.61808 14.183 9.81356 14.4468C10.238 15.0196 11.1091 15.0177 11.5335 14.4455C11.9015 13.9495 11.8995 13.1266 11.5315 12.6306C11.3367 12.3688 11.077 12.2316 10.7529 12.2126C10.034 12.1706 9.53018 12.727 9.53739 13.6542Z" fill="white"/>
<path d="M16.4079 13.691C16.358 12.006 17.4627 10.7475 19.0344 10.6989C20.7045 10.6478 21.9298 11.7711 21.9797 13.4082C22.0302 15.0663 21.0134 16.2428 19.445 16.4003C17.7415 16.5709 16.3836 15.3295 16.4079 13.691ZM18.0576 13.5329C18.0557 13.8688 18.135 14.1818 18.3371 14.4541C18.7517 15.0119 19.6143 15.0165 20.0374 14.4666C20.4191 13.9706 20.4204 13.128 20.0439 12.6267C19.8478 12.3656 19.5867 12.2304 19.2633 12.2134C18.5549 12.176 18.0609 12.7179 18.0576 13.5336V13.5329Z" fill="white"/>
<path d="M15.8322 12.3865C15.8322 13.4029 15.8374 14.4193 15.8302 15.4363C15.8263 16.0177 15.3133 16.4107 14.7616 16.2716C14.4304 16.1883 14.1831 15.8366 14.1824 15.4271C14.1798 13.689 14.1811 11.9515 14.1811 10.2133C14.1811 9.90752 14.1772 9.6011 14.1824 9.29533C14.1909 8.79009 14.5124 8.46266 14.9945 8.45807C15.493 8.45282 15.8269 8.78156 15.8302 9.30386C15.8368 10.3314 15.8322 11.3589 15.8322 12.3865Z" fill="white"/>
</g>
<defs>
<clipPath id="clip0_1_29">
<rect width="19.9579" height="7.95789" fill="white" transform="translate(2.02344 8.45801)"/>
</clipPath>
</defs>
</svg>
